# xmcd
# Track frame offsets:
# 150
# 20972
# 32657
# 47845
# 65370
# 86182
# 98877
# 110972
# 123680
# 142477
# 150800
# 169277
# 186517
# 201612
# 210052
# 235207
#
# Disc length: 3249 seconds
# Revision: 0
# Processed by: cddbd v1.4PL0 Copyright (c) Steve Scherf et al.
# Submitted via: VisiTrax 2.9.6.190 - For more info visit www.synapsa.com
#
DISCID=f60caf10
DTITLE=Conway Twitty - Merry Christmas
DYEAR=1900
DGENRE=
TTITLE0=Santa Claus Is Comin`to Town
TTITLE1=Nine Little Reindeer
TTITLE2=Jingel Bells
TTITLE3=White Christmas
TTITLE4=Christmas is for the Birds
TTITLE5=Johnny Snowman
TTITLE6=Frosty The Snowman
TTITLE7=Winter Wonderland
TTITLE8=Rudolph The Red Nose Reindeer
TTITLE9=Happy The Christmas Clown
TTITLE10=Silver Bells
TTITLE11=Ding-A-Ling,The Christmas Bell
TTITLE12=Kids
TTITLE13=Here Comes Santa Claus
TTITLE14=The NIght Befor Christmas/Up On The House Top/Jolly Ole St. Nicholas
TTITLE15=Silent Night
EXTD=
EXTT0=
EXTT1=
EXTT2=
EXTT3=
EXTT4=
EXTT5=
EXTT6=
EXTT7=
EXTT8=
EXTT9=
EXTT10=
EXTT11=
EXTT12=
EXTT13=
EXTT14=
EXTT15=
PLAYORDER=
